<?xml version="1.0" encoding="UTF-8"?>
<svg xmlns="http://www.w3.org/2000/svg" xmlns:xlink="http://www.w3.org/1999/xlink" width="40px" height="40px" viewBox="0 0 40 40" version="1.1">
<g id="surface1">
<path style=" stroke:none;fill-rule:nonzero;fill:rgb(0%,0%,0%);fill-opacity:1;" d="M 12.082031 32.984375 L 5.644531 27.984375 C 5.441406 27.824219 5.277344 27.625 5.167969 27.394531 C 5.054688 27.164062 5 26.910156 5 26.652344 C 5.003906 26.398438 5.0625 26.144531 5.179688 25.914062 C 5.292969 25.6875 5.460938 25.488281 5.667969 25.332031 L 12.332031 20.332031 C 12.6875 20.066406 13.132812 19.953125 13.570312 20.015625 C 14.007812 20.078125 14.402344 20.3125 14.667969 20.667969 C 14.933594 21.019531 15.046875 21.464844 14.984375 21.902344 C 14.921875 22.339844 14.6875 22.734375 14.332031 23 L 11.667969 25 L 33.332031 25 C 33.773438 25 34.199219 25.175781 34.511719 25.488281 C 34.824219 25.800781 35 26.226562 35 26.667969 C 35 27.109375 34.824219 27.53125 34.511719 27.84375 C 34.199219 28.15625 33.773438 28.332031 33.332031 28.332031 L 11.53125 28.332031 L 14.125 30.351562 C 14.300781 30.484375 14.445312 30.652344 14.550781 30.839844 C 14.660156 31.03125 14.730469 31.242188 14.757812 31.457031 C 14.785156 31.675781 14.769531 31.894531 14.710938 32.109375 C 14.652344 32.320312 14.554688 32.515625 14.421875 32.6875 C 14.285156 32.863281 14.121094 33.007812 13.929688 33.113281 C 13.738281 33.222656 13.53125 33.292969 13.3125 33.320312 C 13.09375 33.347656 12.875 33.332031 12.664062 33.273438 C 12.453125 33.214844 12.253906 33.117188 12.082031 32.984375 Z M 25.332031 17.667969 C 25.203125 17.492188 25.105469 17.292969 25.050781 17.082031 C 24.996094 16.867188 24.984375 16.648438 25.015625 16.429688 C 25.046875 16.214844 25.121094 16.003906 25.234375 15.816406 C 25.34375 15.628906 25.492188 15.464844 25.667969 15.332031 L 28.332031 13.332031 L 6.667969 13.332031 C 6.226562 13.332031 5.800781 13.15625 5.488281 12.84375 C 5.175781 12.53125 5 12.109375 5 11.667969 C 5 11.226562 5.175781 10.800781 5.488281 10.488281 C 5.800781 10.175781 6.226562 10 6.667969 10 L 28.46875 10 L 25.875 7.984375 C 25.695312 7.851562 25.546875 7.683594 25.433594 7.492188 C 25.324219 7.300781 25.25 7.089844 25.222656 6.871094 C 25.191406 6.652344 25.207031 6.429688 25.261719 6.214844 C 25.320312 6 25.421875 5.800781 25.558594 5.625 C 25.691406 5.453125 25.863281 5.304688 26.054688 5.199219 C 26.246094 5.089844 26.460938 5.019531 26.679688 4.992188 C 26.898438 4.96875 27.121094 4.988281 27.335938 5.046875 C 27.546875 5.109375 27.746094 5.210938 27.917969 5.351562 L 34.355469 10.351562 C 34.558594 10.507812 34.71875 10.710938 34.832031 10.941406 C 34.945312 11.171875 35 11.425781 35 11.679688 C 34.996094 11.9375 34.933594 12.191406 34.820312 12.417969 C 34.703125 12.648438 34.539062 12.847656 34.332031 13 L 27.667969 18 C 27.492188 18.132812 27.292969 18.226562 27.082031 18.28125 C 26.867188 18.335938 26.648438 18.347656 26.429688 18.316406 C 26.214844 18.285156 26.003906 18.210938 25.816406 18.101562 C 25.628906 17.988281 25.464844 17.84375 25.332031 17.667969 Z M 25.332031 17.667969 "/>
</g>
</svg>
